<svg width="1080" height="1350" xmlns="http://www.w3.org/2000/svg">
  <defs>
    <linearGradient id="bg" x1="0%" y1="0%" x2="100%" y2="100%">
      <stop offset="0%" style="stop-color:#8b5cf6"/>
      <stop offset="100%" style="stop-color:#d946ef"/>
    </linearGradient>
  </defs>
  <rect width="1080" height="1350" fill="url(#bg)"/>

  <!-- Slide indicator -->
  <g transform="translate(540, 80)">
    <circle cx="-60" cy="0" r="8" fill="white" opacity="0.4"/>
    <circle cx="-30" cy="0" r="8" fill="white" opacity="0.4"/>
    <circle cx="0" cy="0" r="8" fill="white" opacity="0.4"/>
    <circle cx="30" cy="0" r="8" fill="white"/>
    <circle cx="60" cy="0" r="8" fill="white" opacity="0.4"/>
  </g>

  <rect x="90" y="180" width="900" height="650" rx="30" fill="white"/>

  <text x="540" y="280" text-anchor="middle" font-family="Arial, sans-serif" font-size="36" fill="#6b7280">
    μ‹¤μ  κ²°κ³Ό μμ‹
  </text>

  <text x="540" y="420" text-anchor="middle" font-size="100">π”¥</text>

  <text x="540" y="560" text-anchor="middle" font-family="Arial, sans-serif" font-size="52" font-weight="bold" fill="#1f2937">
    ν”„λ¦¬ μ¤ν”Όλ¦Ώ
  </text>
  <text x="540" y="620" text-anchor="middle" font-family="Arial, sans-serif" font-size="28" fill="#6b7280">
    μμ λ΅μ΄ λ°ν•­μ•„
  </text>

  <g transform="translate(540, 720)">
    <rect x="-300" y="-25" width="120" height="50" rx="25" fill="#8b5cf6" opacity="0.15"/>
    <text x="-240" y="8" text-anchor="middle" font-family="Arial, sans-serif" font-size="22" fill="#8b5cf6">μμ </text>
    <rect x="-150" y="-25" width="120" height="50" rx="25" fill="#8b5cf6" opacity="0.15"/>
    <text x="-90" y="8" text-anchor="middle" font-family="Arial, sans-serif" font-size="22" fill="#8b5cf6">λ„μ „</text>
    <rect x="0" y="-25" width="120" height="50" rx="25" fill="#8b5cf6" opacity="0.15"/>
    <text x="60" y="8" text-anchor="middle" font-family="Arial, sans-serif" font-size="22" fill="#8b5cf6">λ€λ‹΄ν•¨</text>
    <rect x="150" y="-25" width="120" height="50" rx="25" fill="#8b5cf6" opacity="0.15"/>
    <text x="210" y="8" text-anchor="middle" font-family="Arial, sans-serif" font-size="22" fill="#8b5cf6">λ…λ¦½μ‹¬</text>
  </g>

  <text x="540" y="920" text-anchor="middle" font-family="Arial, sans-serif" font-size="28" fill="white" opacity="0.9">
    "λ¨λ“  κ²ƒμ„ λμ§€κ³  μμ λ΅­κ² μ‚΄κ³  μ‹¶μ€
  </text>
  <text x="540" y="970" text-anchor="middle" font-family="Arial, sans-serif" font-size="28" fill="white" opacity="0.9">
    μ•λ§μ΄ μ¨μ–΄μμ–΄μ”"
  </text>

  <text x="540" y="1100" text-anchor="middle" font-family="Arial, sans-serif" font-size="36" fill="white">
    λ‚μ λ¶€μΊλ” λ­κΉ? π¤”
  </text>

  <rect x="240" y="1150" width="600" height="80" rx="40" fill="white"/>
  <text x="540" y="1205" text-anchor="middle" font-family="Arial, sans-serif" font-size="32" font-weight="bold" fill="#8b5cf6">
    12λ¬Έν•­ Β· 3λ¶„ Β· λ¬΄λ£
  </text>

  <text x="540" y="1300" text-anchor="middle" font-family="Arial, sans-serif" font-size="32" fill="white" opacity="0.7">
    β†’
  </text>
</svg>
