<svg width="1080" height="1350" xmlns="http://www.w3.org/2000/svg">
  <defs>
    <linearGradient id="bg" x1="0%" y1="0%" x2="100%" y2="100%">
      <stop offset="0%" style="stop-color:#8b5cf6"/>
      <stop offset="100%" style="stop-color:#d946ef"/>
    </linearGradient>
  </defs>
  <rect width="1080" height="1350" fill="url(#bg)"/>

  <!-- Slide indicator -->
  <g transform="translate(540, 80)">
    <circle cx="-60" cy="0" r="8" fill="white" opacity="0.4"/>
    <circle cx="-30" cy="0" r="8" fill="white" opacity="0.4"/>
    <circle cx="0" cy="0" r="8" fill="white"/>
    <circle cx="30" cy="0" r="8" fill="white" opacity="0.4"/>
    <circle cx="60" cy="0" r="8" fill="white" opacity="0.4"/>
  </g>

  <text x="540" y="180" text-anchor="middle" font-family="Arial, sans-serif" font-size="42" fill="white">
    5κ°€μ§€ λ¶€μΊ μ ν•
  </text>

  <!-- Type 1 -->
  <g transform="translate(540, 340)">
    <rect x="-420" y="-80" width="840" height="160" rx="20" fill="white"/>
    <circle cx="-330" cy="0" r="55" fill="#fbbf24"/>
    <text x="-330" y="15" text-anchor="middle" font-size="50">π</text>
    <text x="-150" y="-15" text-anchor="start" font-family="Arial, sans-serif" font-size="36" font-weight="bold" fill="#1f2937">μ¤ν…μ΄μ§€ μ¤ν‹Έλ¬</text>
    <text x="-150" y="35" text-anchor="start" font-family="Arial, sans-serif" font-size="26" fill="#6b7280">λ¬΄λ€ μ„μ μ¤νƒ€</text>
  </g>

  <!-- Type 2 -->
  <g transform="translate(540, 530)">
    <rect x="-420" y="-80" width="840" height="160" rx="20" fill="white"/>
    <circle cx="-330" cy="0" r="55" fill="#a855f7"/>
    <text x="-330" y="15" text-anchor="middle" font-size="50">π¨</text>
    <text x="-150" y="-15" text-anchor="start" font-family="Arial, sans-serif" font-size="36" font-weight="bold" fill="#1f2937">νλ“  μ•„ν‹°μ¤νΈ</text>
    <text x="-150" y="35" text-anchor="start" font-family="Arial, sans-serif" font-size="26" fill="#6b7280">μ°½μ΅°μ μΈ μνΌ</text>
  </g>

  <!-- Type 3 -->
  <g transform="translate(540, 720)">
    <rect x="-420" y="-80" width="840" height="160" rx="20" fill="white"/>
    <circle cx="-330" cy="0" r="55" fill="#ef4444"/>
    <text x="-330" y="15" text-anchor="middle" font-size="50">π”¥</text>
    <text x="-150" y="-15" text-anchor="start" font-family="Arial, sans-serif" font-size="36" font-weight="bold" fill="#1f2937">ν”„λ¦¬ μ¤ν”Όλ¦Ώ</text>
    <text x="-150" y="35" text-anchor="start" font-family="Arial, sans-serif" font-size="26" fill="#6b7280">μμ λ΅μ΄ λ°ν•­μ•„</text>
  </g>

  <!-- Type 4 -->
  <g transform="translate(540, 910)">
    <rect x="-420" y="-80" width="840" height="160" rx="20" fill="white"/>
    <circle cx="-330" cy="0" r="55" fill="#3b82f6"/>
    <text x="-330" y="15" text-anchor="middle" font-size="50">π‘‘</text>
    <text x="-150" y="-15" text-anchor="start" font-family="Arial, sans-serif" font-size="36" font-weight="bold" fill="#1f2937">μ„€λ„μ° λ¦¬λ”</text>
    <text x="-150" y="35" text-anchor="start" font-family="Arial, sans-serif" font-size="26" fill="#6b7280">νƒ€κ³ λ‚ λ¦¬λ”</text>
  </g>

  <!-- Type 5 -->
  <g transform="translate(540, 1100)">
    <rect x="-420" y="-80" width="840" height="160" rx="20" fill="white"/>
    <circle cx="-330" cy="0" r="55" fill="#06b6d4"/>
    <text x="-330" y="15" text-anchor="middle" font-size="50">π”®</text>
    <text x="-150" y="-15" text-anchor="start" font-family="Arial, sans-serif" font-size="36" font-weight="bold" fill="#1f2937">μ†μΈ μ‹μ»¤</text>
    <text x="-150" y="35" text-anchor="start" font-family="Arial, sans-serif" font-size="26" fill="#6b7280">μμ μΈ νƒκµ¬μ</text>
  </g>

  <text x="540" y="1280" text-anchor="middle" font-family="Arial, sans-serif" font-size="32" fill="white" opacity="0.7">
    β†’
  </text>
</svg>
