<svg width="1080" height="1350" xmlns="http://www.w3.org/2000/svg">
  <defs>
    <linearGradient id="bg" x1="0%" y1="0%" x2="100%" y2="100%">
      <stop offset="0%" style="stop-color:#a855f7"/>
      <stop offset="100%" style="stop-color:#6366f1"/>
    </linearGradient>
  </defs>
  <rect width="1080" height="1350" fill="url(#bg)"/>

  <!-- Slide indicator -->
  <g transform="translate(540, 80)">
    <circle cx="-60" cy="0" r="8" fill="white" opacity="0.4"/>
    <circle cx="-30" cy="0" r="8" fill="white" opacity="0.4"/>
    <circle cx="0" cy="0" r="8" fill="white" opacity="0.4"/>
    <circle cx="30" cy="0" r="8" fill="white"/>
    <circle cx="60" cy="0" r="8" fill="white" opacity="0.4"/>
  </g>

  <text x="540" y="200" text-anchor="middle" font-family="Arial, sans-serif" font-size="42" fill="white">
    ν…μ¤νΈ κ²°κ³Ό μ ν•
  </text>

  <!-- Result types -->
  <g transform="translate(540, 380)">
    <rect x="-420" y="-100" width="400" height="200" rx="20" fill="white"/>
    <text x="-220" y="-20" text-anchor="middle" font-size="60">π¨</text>
    <text x="-220" y="50" text-anchor="middle" font-family="Arial, sans-serif" font-size="32" font-weight="bold" fill="#1f2937">μ•μ •μ μΈ λ§μ</text>
    <text x="-220" y="90" text-anchor="middle" font-family="Arial, sans-serif" font-size="24" fill="#6b7280">Low</text>

    <rect x="20" y="-100" width="400" height="200" rx="20" fill="white"/>
    <text x="220" y="-20" text-anchor="middle" font-size="60">πΏ</text>
    <text x="220" y="50" text-anchor="middle" font-family="Arial, sans-serif" font-size="32" font-weight="bold" fill="#1f2937">κ· ν•μ΅ν κ°μμ„±</text>
    <text x="220" y="90" text-anchor="middle" font-family="Arial, sans-serif" font-size="24" fill="#6b7280">Moderate</text>
  </g>

  <g transform="translate(540, 680)">
    <rect x="-420" y="-100" width="400" height="200" rx="20" fill="white"/>
    <text x="-220" y="-20" text-anchor="middle" font-size="60">π¦‹</text>
    <text x="-220" y="50" text-anchor="middle" font-family="Arial, sans-serif" font-size="32" font-weight="bold" fill="#1f2937">μ„¬μ„Έν• μνΌ</text>
    <text x="-220" y="90" text-anchor="middle" font-family="Arial, sans-serif" font-size="24" fill="#6b7280">High</text>

    <rect x="20" y="-100" width="400" height="200" rx="20" fill="white"/>
    <text x="220" y="-20" text-anchor="middle" font-size="60">β¨</text>
    <text x="220" y="50" text-anchor="middle" font-family="Arial, sans-serif" font-size="32" font-weight="bold" fill="#1f2937">μ΄λ―Όκ° κ°μμ„±</text>
    <text x="220" y="90" text-anchor="middle" font-family="Arial, sans-serif" font-size="24" fill="#6b7280">Very High</text>
  </g>

  <text x="540" y="950" text-anchor="middle" font-family="Arial, sans-serif" font-size="36" fill="white">
    λ‚λ” μ–΄λ–¤ μ ν•μΌκΉ? π¤”
  </text>

  <rect x="190" y="1050" width="700" height="100" rx="50" fill="white"/>
  <text x="540" y="1115" text-anchor="middle" font-family="Arial, sans-serif" font-size="36" font-weight="bold" fill="#7c3aed">
    12λ¬Έν•­ Β· 3λ¶„ Β· λ¬΄λ£
  </text>

  <text x="540" y="1280" text-anchor="middle" font-family="Arial, sans-serif" font-size="32" fill="white" opacity="0.7">
    β†’
  </text>
</svg>
